<?xml version="1.0" encoding="iso-8859-1"?>
<!-- Generator: Adobe Illustrator 19.0.0, SVG Export Plug-In . SVG Version: 6.00 Build 0)  -->
<svg version="1.1" id="Capa_1" xmlns="http://www.w3.org/2000/svg" xmlns:xlink="http://www.w3.org/1999/xlink" x="0px" y="0px"
	 viewBox="0 0 511.996 511.996" style="enable-background:new 0 0 511.996 511.996;" xml:space="preserve">
<path style="fill:#FF0059;" d="M102.404,30.513c-6.678,1.67-11.364,7.659-11.364,14.542s4.687,12.873,11.364,14.542l123.6,30.446
	V0.067L102.404,30.513z"/>
<path style="fill:#FCBF29;" d="M213.292,97.086L63.332,338.021c-2.899,4.628-3.046,10.456-0.411,15.216
	c2.651,4.774,7.674,7.732,13.122,7.732h149.96l7.952-268.643C226.912,87.918,217.671,90.057,213.292,97.086z"/>
<path style="fill:#D9D9D9;" d="M435.947,360.969H226.003c-6.458,0-12.185-4.13-14.22-10.251c-2.05-6.121,0.059-12.858,5.214-16.739
	c31.822-23.9,53.995-92.894,53.995-138.966c0-39.423-20.312-79.022-54.316-105.939c-5.316-4.203-7.146-11.423-4.496-17.646
	c2.665-6.238,9.153-9.943,15.86-8.963c117.99,16.417,205.463,143.037,218.833,250.03l3.954,31.618
	c0.542,4.262-0.791,8.553-3.632,11.789C444.338,359.125,440.253,360.969,435.947,360.969z"/>
<path style="fill:#883F2E;" d="M240.999,15.062v390.895c0,8.397-6.597,14.996-14.996,14.996c-8.399,0-14.996-6.599-14.996-14.996
	V15.062c0-8.399,6.597-14.996,14.996-14.996C234.402,0.066,240.999,6.664,240.999,15.062z"/>
<path style="fill:#6D3326;" d="M226.003,420.953V0.066c8.399,0,14.996,6.597,14.996,14.996v390.895
	C240.999,414.354,234.402,420.953,226.003,420.953z"/>
<path style="fill:#FF0059;" d="M479.436,412.254l-33.591,71.482c0,0.3,0,0.3-0.3,0.599c-9.597-11.696-23.994-17.394-39.589-17.394
	c-17.095,0-32.99,6.297-42.588,20.694c-1.201,1.799-3,2.698-4.5,3.899l-25.492,0.298c-1.8-1.199-3.599-2.398-4.8-4.198
	c-9.597-14.397-25.492-20.694-42.588-20.694c-11.097,0-21.295,2.698-29.992,8.097c-4.798,3.3-8.998,7.498-12.596,12.598
	c-1.5,2.099-3.599,3.599-5.698,5.098h-23.095c-2.099-1.199-4.5-2.7-5.998-5.098c-9.597-14.397-25.492-20.694-42.588-20.694
	s-32.99,6.297-42.588,20.694c-1.8,2.698-4.199,4.798-7.198,5.998l-20.397,0.298c-2.698-1.5-5.399-3.599-7.198-6.297
	c-7.198-10.798-19.295-17.095-31.591-19.496l-25.494-55.886c-2.4-4.498-1.8-9.896,0.901-14.395
	c2.698-4.199,7.498-6.897,12.596-6.897h420.887c5.098,0,9.898,2.698,12.596,6.897C481.236,402.359,481.835,407.757,479.436,412.254z
	"/>
<path style="fill:#E50048;" d="M479.436,412.254l-33.591,71.482c0,0.3,0,0.3-0.3,0.599c-9.597-11.696-23.994-17.394-39.589-17.394
	c-17.095,0-32.99,6.297-42.588,20.694c-1.201,1.799-3,2.698-4.5,3.899l-25.492,0.298c-1.8-1.199-3.599-2.398-4.8-4.198
	c-9.597-14.397-25.492-20.694-42.588-20.694c-11.097,0-21.295,2.698-29.992,8.097c-4.798,3.3-8.998,7.498-12.596,12.598
	c-1.5,2.099-3.599,3.599-5.698,5.098h-11.697V390.959h239.936c5.098,0,9.898,2.698,12.596,6.897
	C481.236,402.359,481.835,407.757,479.436,412.254z"/>
<path style="fill:#1DE8F1;" d="M509.527,489.135c-9.597,14.395-25.492,22.794-42.588,22.794s-33.99-8.399-43.587-22.794
	c-7.798-11.998-26.994-11.998-34.792,0c-9.597,14.395-25.492,22.794-42.588,22.794s-32.99-8.399-42.588-22.794
	c-7.798-11.998-26.994-11.998-34.792,0c-3.599,5.098-7.798,9.597-12.596,12.897c-8.697,6.599-18.895,9.898-29.992,9.898
	c-17.095,0-32.99-8.399-42.588-22.794c-7.798-11.998-26.994-11.998-34.792,0c-9.597,14.395-25.492,22.794-42.588,22.794
	s-33.99-8.399-43.587-22.794c-7.798-11.998-26.994-11.998-34.792,0c-4.798,6.897-14.095,8.697-20.994,4.199
	c-6.897-4.5-8.697-13.797-4.198-20.694c9.597-14.397,25.492-20.694,42.588-20.694s33.99,6.297,43.587,20.694
	c7.798,11.696,26.994,11.696,34.792,0c9.597-14.397,25.492-20.694,42.588-20.694s32.99,6.297,42.588,20.694
	c3.899,5.698,10.798,8.697,17.396,8.697c6.598,0,13.496-2.998,17.396-8.697c3.599-5.1,7.798-9.297,12.596-12.598
	c8.697-5.399,18.895-8.097,29.992-8.097c17.095,0,32.99,6.297,42.588,20.694c7.798,11.696,26.994,11.696,34.792,0
	c9.597-14.397,25.492-20.694,42.588-20.694s32.99,6.297,42.588,20.694c7.798,11.696,27.993,11.696,35.791,0
	c4.798-6.899,14.095-8.699,20.994-4.199C512.227,472.94,514.027,482.238,509.527,489.135z"/>
<path style="fill:#15B7BE;" d="M509.527,489.135c-9.597,14.395-25.492,22.794-42.588,22.794s-33.99-8.399-43.587-22.794
	c-7.798-11.998-26.994-11.998-34.792,0c-9.597,14.395-25.492,22.794-42.588,22.794s-32.99-8.399-42.588-22.794
	c-7.798-11.998-26.994-11.998-34.792,0c-3.599,5.098-7.798,9.597-12.596,12.897c-8.697,6.599-18.895,9.898-29.992,9.898v-30.593
	c6.597,0,13.496-2.998,17.396-8.697c3.599-5.1,7.798-9.297,12.596-12.598c8.697-5.399,18.895-8.097,29.992-8.097
	c17.095,0,32.99,6.297,42.588,20.694c7.798,11.696,26.994,11.696,34.792,0c9.597-14.397,25.492-20.694,42.588-20.694
	s32.99,6.297,42.588,20.694c7.798,11.696,27.993,11.696,35.791,0c4.798-6.899,14.095-8.699,20.994-4.199
	C512.227,472.94,514.027,482.238,509.527,489.135z"/>
<g>
</g>
<g>
</g>
<g>
</g>
<g>
</g>
<g>
</g>
<g>
</g>
<g>
</g>
<g>
</g>
<g>
</g>
<g>
</g>
<g>
</g>
<g>
</g>
<g>
</g>
<g>
</g>
<g>
</g>
</svg>
