<svg xmlns="http://www.w3.org/2000/svg" width="830.945" height="824.448" viewBox="0 0 830.945 824.448">
  <defs>
    <style>
      .cls-1 {
        fill: #dcefff;
      }

      .cls-2 {
        fill: #d1e9ff;
      }

      .cls-3 {
        fill: #f3faff;
      }
    </style>
  </defs>
  <g id="coconut_trees" data-name="coconut trees" transform="translate(0)">
    <g id="coconut_tree" data-name="coconut tree" transform="translate(349.823)">
      <path id="Path_502" data-name="Path 502" class="cls-1" d="M677.7,284.91,648.12,297.747s-37.449,129.593-37.114,174.97c.468,63.226-2.283,434.316-2.283,434.316l131.827.576s-51.289-353.091-68.03-417.078C662.527,452.335,677.7,284.91,677.7,284.91Z" transform="translate(-402.195 -89.463)"/>
      <path id="Path_503" data-name="Path 503" class="cls-2" d="M883.1,333.589c1.888,3.666-22.986,8.772-31.427,9.674-3.5.374-16.419-18.23-16.419-18.23s-13.393,13.51-19.779,12.937c-10-.9-15.146-2.3-26.863-4.6-1.95-.383-16.7-18.641-16.7-18.641S751.98,326.525,748.3,325.8c-13.725-2.7-39.6-7.523-52.544-10.069-2.882-.566-11.407-19.208-11.407-19.208S671.928,308.4,667.091,307.62c-29.432-4.778-50.245-6.587-49.306-11.361,5.776-29.385,88.033-52.643,145.76-43.41C825.34,262.732,870.868,309.845,883.1,333.589Z" transform="translate(-402.076 -107.971)"/>
      <path id="Path_504" data-name="Path 504" class="cls-1" d="M492.909,114.914c-4.083.572,6.1,23.836,10.229,31.25,1.713,3.074,24.362,2.895,24.362,2.895s-3.308,18.734.843,23.619c6.5,7.651,10.617,11.046,19.258,19.288,1.437,1.37,24.857,2.883,24.857,2.883s1.861,23.087,4.573,25.673c10.12,9.654,13.98,15.379,23.529,24.487,2.125,2.028,22.27-1.763,22.27-1.763s-2.534,17,.9,20.5c20.881,21.284,49.374,49.862,52.732,46.342,20.671-21.671-7.787-102.276-48.63-144.1C584.106,121.213,519.359,111.2,492.909,114.914Z" transform="translate(-403.744 -114.207)"/>
      <path id="Path_505" data-name="Path 505" class="cls-1" d="M404.978,282.686c-2.6,3.2,58.916,17.427,65.282,18.178,9.971,1.175,15.3.86,27.237,1.013,1.985.025,20.168-14.814,20.168-14.814s17.084,15.641,20.83,15.689c13.986.178,20.71,1.744,33.906,1.912,2.936.038,15.11-16.455,15.11-16.455s9.72,14.179,14.616,14.4c29.785,1.371,70.111,2.9,70.173-1.965.383-29.945-75.343-69.6-133.735-72.425C476.057,225.2,421.822,261.958,404.978,282.686Z" transform="translate(-404.898 -112.698)"/>
      <path id="Path_506" data-name="Path 506" class="cls-1" d="M857.4,455.412c-.4,4.1-54.144-29.038-59.2-32.981-7.917-6.176-11.481-10.145-20.079-18.432-1.43-1.379-3.922-24.715-3.922-24.715s-23.145-.892-25.842-3.492c-10.07-9.707-15.952-13.323-25.452-22.482-2.115-2.039.828-22.325.828-22.325s-16.881,3.245-20.52-.036c-22.141-19.97-51.889-47.239-48.512-50.742,20.784-21.56,102.512,3.492,146.015,42.546C847.28,364.559,860,428.829,857.4,455.412Z" transform="translate(-401.589 -106.23)"/>
      <path id="Path_1343" data-name="Path 1343" class="cls-2" d="M24.848,0C38.571,0,49.7,13.844,49.7,30.922S38.571,61.844,24.848,61.844,0,48,0,30.922,11.125,0,24.848,0Z" transform="translate(252.492 179.061) rotate(-21.254)"/>
      <path id="Path_1342" data-name="Path 1342" class="cls-3" d="M25.7,0A25.583,25.583,0,1,1,0,25.582,25.642,25.642,0,0,1,25.7,0Z" transform="translate(234.024 168.724) rotate(-21.254)"/>
      <path id="Path_1341" data-name="Path 1341" class="cls-2" d="M30.922,0C48,0,61.844,11.125,61.844,24.848S48,49.7,30.922,49.7,0,38.571,0,24.848,13.844,0,30.922,0Z" transform="translate(205.985 221.814) rotate(-78.451)"/>
    </g>
    <g id="coconut_tree-2" data-name="coconut tree" transform="translate(0 21.789)">
      <path id="Path_507" data-name="Path 507" class="cls-1" d="M280,360.844l32.225,1.239S394.1,469.286,410.235,511.7C432.718,570.794,571.2,912.9,571.2,912.9H421.231s-54.274-296.6-61.868-362.3C354.831,511.38,280,360.844,280,360.844Z" transform="translate(-56.731 -110.244)"/>
      <path id="Path_508" data-name="Path 508" class="cls-3" d="M60.047,281.761c-3.4,2.334,16.084,18.617,23.09,23.411,2.9,1.987,23.1-8.271,23.1-8.271s5.393,18.243,11.287,20.765c9.231,3.949,14.428,5.152,25.837,8.678,1.9.586,23.536-8.5,23.536-8.5s11.961,19.836,15.539,20.941c13.364,4.128,38.432,12.138,51.04,16.033,2.807.867,19.149-11.509,19.149-11.509s5.313,16.349,9.944,17.95c28.181,9.741,47.366,18.011,48.8,13.362,8.84-28.613-52.574-88.074-107.782-107.3C144.484,246.736,82.067,266.647,60.047,281.761Z" transform="translate(-59.653 -129.862)"/>
      <path id="Path_509" data-name="Path 509" class="cls-1" d="M391.37,135.736c4.013-.946,2.959,24.425,1.8,32.833-.482,3.487-21.655,11.53-21.655,11.53s9.874,16.26,7.776,22.318c-3.287,9.487-5.891,14.143-10.956,24.957-.842,1.8-22.121,11.7-22.121,11.7s6.634,22.192,5.045,25.585c-5.933,12.666-7.455,19.4-13.052,31.35-1.246,2.661-21.4,6.43-21.4,6.43s8.526,14.927,6.6,19.431c-11.745,27.407-27.94,64.369-32.345,62.305-27.12-12.7-29.818-98.142-6.914-151.929C308.659,174.666,365.373,141.867,391.37,135.736Z" transform="translate(-56.881 -135.711)"/>
      <path id="Path_510" data-name="Path 510" class="cls-2" d="M535.459,259.782c3.584,2.04-48.591,37.6-54.252,40.606-8.867,4.711-13.944,6.347-25.017,10.819-1.842.744-24.167-6.495-24.167-6.495s-10.251,20.77-13.725,22.172c-12.97,5.237-18.67,9.133-30.906,14.073-2.724,1.1-20.047-9.859-20.047-9.859s-3.92,16.738-8.4,18.722c-27.263,12.075-64.291,28.119-66.113,23.607-11.212-27.769,44.988-92.181,98.385-115.978C448.377,231.975,512.246,246.571,535.459,259.782Z" transform="translate(-56.58 -134.282)"/>
      <path id="Path_1340" data-name="Path 1340" class="cls-3" d="M25.7,0A25.583,25.583,0,1,1,0,25.582,25.642,25.642,0,0,1,25.7,0Z" transform="translate(210.018 247.601)"/>
      <path id="Path_511" data-name="Path 511" class="cls-1" d="M74.075,509.414c-.3,4.112,58.268-19.482,63.916-22.516,8.846-4.751,13.028-8.06,22.9-14.778,1.641-1.118,8.038-23.7,8.038-23.7s22.963,3.028,26.061.92c11.563-7.869,17.971-10.44,28.881-17.864,2.429-1.653,2.953-22.144,2.953-22.144s16.092,6.047,20.232,3.427c25.195-15.947,59.119-37.8,56.382-41.825-16.847-24.76-101.632-13.862-151.1,17.289C99.381,421.573,76,482.775,74.075,509.414Z" transform="translate(-59.461 -124.729)"/>
      <path id="Path_1339" data-name="Path 1339" class="cls-2" d="M24.848,0C38.571,0,49.7,13.844,49.7,30.922S38.571,61.844,24.848,61.844,0,48,0,30.922,11.125,0,24.848,0Z" transform="translate(191.28 219.157)"/>
      <path id="Path_1338" data-name="Path 1338" class="cls-3" d="M25.7,0A25.583,25.583,0,1,1,0,25.582,25.642,25.642,0,0,1,25.7,0Z" transform="translate(221.325 204.408)"/>
      <path id="Path_1337" data-name="Path 1337" class="cls-2" d="M24.848,0C38.571,0,49.7,13.844,49.7,30.922S38.571,61.844,24.848,61.844,0,48,0,30.922,11.125,0,24.848,0Z" transform="translate(224.217 255.962) rotate(-55.356)"/>
    </g>
  </g>
</svg>
