<?xml version="1.0" standalone="no"?>
<!DOCTYPE svg PUBLIC "-//W3C//DTD SVG 20010904//EN"
 "http://www.w3.org/TR/2001/REC-SVG-20010904/DTD/svg10.dtd">
<svg version="1.0" xmlns="http://www.w3.org/2000/svg"
 width="512.000000pt" height="512.000000pt" viewBox="0 0 512.000000 512.000000"
 preserveAspectRatio="xMidYMid meet">

<g transform="translate(0.000000,512.000000) scale(0.100000,-0.100000)"
fill="#000000" stroke="none">
<path d="M2201 5024 c-253 -68 -410 -331 -346 -579 67 -256 329 -415 580 -350
187 49 329 205 359 396 l10 69 118 0 118 0 0 80 0 80 -132 0 -133 0 -33 64
c-99 191 -334 296 -541 240z m434 -506 c-17 -108 -87 -201 -185 -247 -74 -34
-181 -35 -257 -2 -28 13 -59 31 -67 40 -15 16 -12 20 28 48 47 33 86 101 86
149 0 52 8 54 213 54 l189 0 -7 -42z"/>
<path d="M4360 4469 c-234 -30 -469 -120 -680 -260 -123 -81 -324 -281 -406
-404 -62 -92 -149 -244 -143 -249 2 -1 34 -19 71 -39 l68 -36 26 47 c116 206
173 281 308 410 220 211 516 343 834 374 l122 12 0 78 0 78 -67 -1 c-38 -1
-97 -5 -133 -10z"/>
<path d="M4480 4080 l0 -80 80 0 80 0 0 80 0 80 -80 0 -80 0 0 -80z"/>
<path d="M2146 3989 c-63 -15 -153 -69 -197 -116 -22 -24 -55 -74 -72 -111
l-32 -67 -3 -437 -3 -437 -32 -6 c-41 -7 -511 -65 -526 -65 -6 0 -11 15 -11
33 0 85 -84 257 -173 354 -52 57 -181 143 -215 143 -13 0 -47 -13 -74 -30 -26
-16 -50 -30 -53 -30 -2 0 -36 47 -74 104 -69 102 -83 116 -123 116 -23 0 -435
-243 -460 -272 -31 -35 -21 -68 51 -177 l70 -104 -30 -28 c-29 -27 -29 -28
-29 -137 0 -102 -2 -111 -20 -117 -12 -4 -30 -16 -40 -28 -18 -19 -20 -36 -20
-209 l0 -189 26 -26 c25 -25 29 -25 102 -19 43 4 87 9 99 12 27 7 25 17 64
-266 29 -206 36 -238 56 -257 l22 -23 1173 0 c1297 0 1270 -1 1452 64 219 78
416 239 533 435 22 36 70 138 107 226 38 88 78 183 91 211 l23 51 68 8 c188
19 184 14 184 254 -1 130 -4 191 -13 202 -33 43 -27 43 -656 -36 -330 -41
-602 -75 -605 -75 -3 0 -6 22 -6 49 l0 50 189 3 c173 3 192 5 217 24 62 46 69
65 72 199 4 122 3 125 -22 150 l-25 25 -214 0 -215 0 -4 128 c-3 117 -6 132
-35 194 -43 93 -100 151 -191 196 l-76 37 -155 2 c-86 1 -173 -2 -195 -8z
m174 -524 c0 -131 1 -137 25 -160 22 -23 32 -25 120 -25 l95 0 0 -40 0 -40
-131 0 -131 0 -29 29 -29 29 0 171 0 171 40 0 40 0 0 -135z m800 -225 l0 -40
-40 0 -40 0 0 40 0 40 40 0 40 0 0 -40z m-2546 -45 c20 -30 36 -58 36 -62 -1
-6 -223 -149 -249 -160 -9 -4 -84 117 -77 124 5 5 248 153 252 153 1 0 18 -25
38 -55z m348 -121 l38 -27 0 -96 c0 -123 -22 -174 -90 -208 -42 -22 -55 -23
-298 -23 -234 0 -253 1 -250 17 2 10 119 90 278 190 151 95 277 172 279 173 3
0 22 -12 43 -26z m2995 -310 c-2 -2 -815 -105 -1808 -229 -992 -123 -1819
-227 -1836 -230 l-33 -6 0 79 0 78 1838 230 1837 230 3 -74 c2 -41 1 -76 -1
-78z"/>
<path d="M4480 3760 l0 -80 80 0 80 0 0 80 0 80 -80 0 -80 0 0 -80z"/>
<path d="M4480 3440 l0 -80 80 0 80 0 0 80 0 80 -80 0 -80 0 0 -80z"/>
<path d="M4480 3120 l0 -80 80 0 80 0 0 80 0 80 -80 0 -80 0 0 -80z"/>
<path d="M4480 2800 l0 -80 80 0 80 0 0 80 0 80 -80 0 -80 0 0 -80z"/>
<path d="M4525 2631 c-34 -15 -231 -223 -274 -290 -106 -165 -118 -388 -31
-564 31 -63 63 -106 174 -231 l58 -66 -113 -127 c-63 -71 -129 -145 -147 -166
-40 -47 -42 -88 -7 -122 l24 -25 351 0 351 0 24 25 c35 34 33 75 -7 122 -18
21 -84 95 -147 166 l-113 127 58 66 c111 126 142 167 174 232 44 90 63 188 57
287 -12 173 -75 290 -249 462 -105 105 -138 123 -183 104z m111 -263 c39 -40
81 -87 93 -105 l21 -31 -26 -21 c-32 -26 -115 -51 -164 -51 -49 0 -132 25
-164 51 l-26 21 21 31 c23 34 160 177 169 177 3 0 37 -33 76 -72z m-231 -341
c40 -17 71 -21 155 -21 105 0 106 0 224 49 18 8 19 5 12 -59 -12 -116 -54
-195 -171 -321 l-65 -70 -56 60 c-128 138 -168 211 -180 331 -7 64 -6 67 12
59 10 -4 42 -17 69 -28z m230 -752 l67 -75 -142 0 -142 0 67 75 c37 41 71 75
75 75 4 0 38 -34 75 -75z"/>
<path d="M80 1410 c0 -44 37 -147 70 -195 101 -147 286 -211 450 -155 71 24
106 45 163 99 l37 35 38 -35 c82 -78 179 -119 282 -119 103 0 200 41 283 119
l37 35 38 -35 c82 -78 179 -119 282 -119 103 0 200 41 283 119 l37 35 38 -35
c81 -78 179 -119 280 -119 197 0 376 154 398 344 l7 56 -81 0 -81 0 -7 -37
c-22 -120 -114 -197 -234 -197 -120 0 -213 77 -235 197 l-7 37 -79 0 -78 0 -7
-37 c-22 -120 -114 -197 -234 -197 -120 0 -213 77 -235 197 l-7 37 -79 0 -78
0 -7 -37 c-22 -120 -113 -197 -234 -197 -120 0 -213 77 -235 197 l-7 37 -79 0
-78 0 -7 -37 c-22 -120 -113 -197 -234 -197 -121 0 -213 77 -235 197 l-7 37
-79 0 -79 0 0 -30z"/>
<path d="M2324 823 c21 -178 182 -328 366 -340 121 -9 214 25 308 111 l42 39
43 -39 c112 -104 250 -138 388 -98 65 19 110 45 167 98 l42 39 43 -39 c112
-104 250 -138 388 -98 65 19 110 45 167 98 l42 39 43 -39 c93 -86 186 -120
307 -111 123 8 229 69 300 172 33 48 70 151 70 195 l0 30 -80 0 -79 0 -7 -37
c-22 -120 -113 -197 -234 -197 -121 0 -213 77 -235 197 l-7 37 -79 0 -78 0 -7
-37 c-22 -120 -113 -197 -234 -197 -121 0 -213 77 -235 197 l-7 37 -79 0 -78
0 -7 -37 c-22 -120 -113 -197 -234 -197 -121 0 -213 77 -235 197 l-7 37 -79 0
-78 0 -7 -37 c-22 -120 -113 -197 -234 -197 -121 0 -213 77 -235 197 l-7 37
-80 0 -81 0 7 -57z"/>
<path d="M80 450 c0 -50 40 -155 79 -206 116 -154 315 -205 486 -126 35 17 84
49 109 72 l46 43 46 -43 c25 -23 75 -56 112 -73 61 -29 76 -32 162 -32 86 0
101 3 162 32 37 17 87 50 112 73 l46 43 46 -43 c106 -98 264 -134 393 -90 154
52 260 176 277 325 l7 55 -81 0 -81 0 -7 -37 c-22 -120 -113 -197 -234 -197
-121 0 -213 77 -235 197 l-7 37 -79 0 -78 0 -7 -37 c-22 -120 -113 -197 -234
-197 -121 0 -213 77 -235 197 l-7 37 -79 0 -78 0 -7 -37 c-22 -120 -113 -197
-234 -197 -121 0 -213 77 -235 197 l-7 37 -79 0 -79 0 0 -30z"/>
</g>
</svg>
